:SAMPLES-PER-SECOND 30
:FULLY-SPECIFIED
:DEGREES
12
root  34.87328056 36.5793123 -14.12888625 9.807362556 -3.977325439 3.081720114
lowerback  -9.5649786 -0.02967121638 -0.2498032153
upperback  -3.389144897 0.4462473691 -3.29246974
thorax  1.85739994 0.3794943094 -3.215430021
lowerneck  -14.43430042 -5.929979801 -4.730410099
upperneck  16.59219933 -8.30591011 7.873899937
head  8.054530144 -3.351159811 2.457180023
lclavicle  0 -4.497500157e-015 -2.743230041e-014
lhumerus  -48.39379883 31.87759972 62.9673996
lradius  0.001172923949 -6.507048965e-006 29.5564003
lwrist  3.192251654e-007 -3.790274832e-007 -29.21809959
lhand  -4.417273986e-031 -36.92810059 -10.69699955
lfingers  90 7.125020027 -90
lthumb  94.83392766 -25.53141127 101.1011154
rclavicle  0 -4.497500157e-015 -2.743230041e-014
rhumerus  -53.73590088 -43.91830063 -47.86809921
rradius  -5.16745672e-007 2.214343908e-008 34.38690186
rwrist  0.0003490542294 -0.002273720223 -139.779007
rhand  -1.767134617e-031 -2.416990042 -7.878280163
rfingers  -90 -7.125020027 -90
rthumb  -86.61721341 -7.811462199 -66.49557865
rfemur  -10.53536797 14.83896542 12.70349979
rtibia  0.4143501222 -1.071817994 17.19869423
rfoot  1.687292099 -21.8274231 -35.35366058
rtoes  4.115381154 19.589001 -102.1122392
lfemur  -4.071620941 -15.85327911 -21.93111038
ltibia  6.36863327 0.03137493506 7.870098114
lfoot  0.2638724446 -22.2111969 35.83386993
ltoes  -8.711323146 -18.07347582 -116.2844721
13
root  34.87366203 36.58653019 -14.12757363 9.840695381 -3.986869812 3.082241297
lowerback  -9.530059814 -0.03314306214 -0.2259330153
upperback  -3.391578197 0.4450689852 -3.294332981
thorax  1.84205997 0.3781957626 -3.230910063
lowerneck  -14.39540005 -5.946040154 -4.746240139
upperneck  16.5576992 -8.321820259 7.859020233
head  8.03715992 -3.363749743 2.453569889
lclavicle  0 -4.497500157e-015 -2.743230041e-014
lhumerus  -48.38990021 31.88229942 62.95780182
lradius  0.001172923949 -6.507048965e-006 29.54260063
lwrist  3.192251654e-007 -3.790274832e-007 -29.22353172
lhand  -4.420116695e-031 -36.97710037 -10.6882
lfingers  90 7.125020027 -90
lthumb  94.85499689 -25.52104711 101.1526354
rclavicle  0 -4.497500157e-015 -2.743230041e-014
rhumerus  -53.58589935 -43.63180161 -48.23449707
rradius  -5.16745672e-007 2.214343908e-008 34.63679886
rwrist  0.0003490542294 -0.002273720223 -140.177002
rhand  -1.767201528e-031 -2.46784997 -7.832709789
rfingers  -90 -7.125020027 -90
rthumb  -86.60806753 -7.850481319 -66.54259248
rfemur  -10.58646297 14.88702679 12.70336914
rtibia  0.4103313684 -1.028219581 17.2355423
rfoot  1.686543345 -21.74006081 -35.35449982
rtoes  4.089607868 19.59419483 -102.0353759
lfemur  -4.024626255 -15.82328701 -21.95477104
ltibia  6.437783718 0.04628714174 7.729655743
lfoot  0.2643200457 -22.17285919 35.86065674
ltoes  -8.664161074 -18.09554429 -116.132542
14
root  34.87395339 36.59037192 -14.12506104 9.860180855 -3.993966579 3.063981533
lowerback  -9.51554966 -0.04156633839 -0.2596488297
upperback  -3.395020008 0.4370020032 -3.29618001
thorax  1.834439993 0.3772267699 -3.216209888
lowerneck  -14.36849976 -5.971529961 -4.782919884
upperneck  16.55820084 -8.351059914 7.866000175
head  8.036399841 -3.379939795 2.458820105
lclavicle  0 -4.497500157e-015 -2.743230041e-014
lhumerus  -48.39601135 31.88769913 62.95050049
lradius  0.001172923949 -6.507048965e-006 29.53890228
lwrist  3.192251654e-007 -3.790274832e-007 -29.21549988
lhand  -4.417297195e-031 -36.92850113 -10.7020998
lfingers  90 7.125020027 -90
lthumb  94.83520666 -25.53638232 101.1020268
rclavicle  0 -4.497500157e-015 -2.743230041e-014
rhumerus  -53.38759995 -43.29240036 -48.69120026
rradius  -5.16745672e-007 2.214343908e-008 34.92359924
rwrist  0.0003490542294 -0.002273720223 -140.6679993
rhand  -1.767294701e-031 -2.5369699 -7.936399937
rfingers  -90 -7.125020027 -90
rthumb  -86.66210853 -7.751509935 -66.61550028
rfemur  -10.61207294 14.92255688 12.71247005
rtibia  0.4216495454 -0.993381083 17.2454071
rfoot  1.686540842 -21.68802643 -35.35914993
rtoes  4.110411721 19.5900051 -102.0974174
lfemur  -4.061996937 -15.77669907 -21.9136982
ltibia  6.415248394 0.09872622043 7.740121841
lfoot  0.2645610869 -22.27732277 35.86857605
ltoes  -8.671041421 -18.09233415 -116.1546955
15
root  34.87357793 36.59032686 -14.12114722 9.857909203 -3.985284328 3.05196929
lowerback  -9.505459785 -0.05054677278 -0.2891224027
upperback  -3.400820017 0.4283539951 -3.298010111
thorax  1.822309971 0.3765195012 -3.202379942
lowerneck  -14.33119965 -6.00744009 -4.810219765
upperneck  16.53240013 -8.395879745 7.872489929
head  8.031675339 -3.405004978 2.455809832
lclavicle  0 -4.497500157e-015 -2.743230041e-014
lhumerus  -48.40359879 31.8973999 62.94599915
lradius  0.001172923949 -6.507048965e-006 29.55569839
lwrist  3.192251654e-007 -3.790274832e-007 -29.2215004
lhand  -4.415618017e-031 -36.8995018 -10.71930027
lfingers  90 7.125020027 -90
lthumb  94.82525103 -25.5543446 101.0725427
rclavicle  0 -4.497500157e-015 -2.743230041e-014
rhumerus  -53.2887001 -42.99440002 -49.09289551
rradius  -5.16745672e-007 2.214343908e-008 35.30450058
rwrist  0.0003490542294 -0.002273720223 -141.1369934
rhand  -1.767463151e-031 -2.657360077 -8.024319649
rfingers  -90 -7.125020027 -90
rthumb  -86.71858655 -7.664238679 -66.73734032
rfemur  -10.60723114 14.93501282 12.7268095
rtibia  0.429109782 -0.9587436914 17.2457962
rfoot  1.699748516 -21.62631226 -35.34339905
rtoes  4.091489529 19.59381679 -102.0409869
lfemur  -4.039620876 -15.76965618 -21.91506195
ltibia  6.42083168 0.0930551216 7.719772339
lfoot  0.2394620329 -22.25437737 35.81508636
ltoes  -8.70464505 -18.07660984 -116.2629481
